<?xml version="1.0" encoding="UTF-8"?>
<svg version="1.1" xmlns="http://www.w3.org/2000/svg" width="454" height="460">
<path d="M0 0 C149.82 0 299.64 0 454 0 C454 151.8 454 303.6 454 460 C304.18 460 154.36 460 0 460 C0 308.2 0 156.4 0 0 Z " fill="#058265" transform="translate(0,0)"/>
<path d="M0 0 C149.82 0 299.64 0 454 0 C454 151.8 454 303.6 454 460 C304.18 460 154.36 460 0 460 C0 308.2 0 156.4 0 0 Z M53.75 23.75 C52.74634399 24.26542358 52.74634399 24.26542358 51.72241211 24.79125977 C45.89866158 27.87706749 40.86066185 31.54012957 36 36 C34.86691406 36.99580078 34.86691406 36.99580078 33.7109375 38.01171875 C19.2572205 51.44721857 10.00368647 71.1622287 8.83151293 90.82652688 C8.56590015 98.46271911 8.58547495 106.10109609 8.60782599 113.74095953 C8.61468311 117.2155277 8.6041025 120.69005258 8.59588623 124.16461182 C8.58261569 130.95252082 8.58539699 137.74032974 8.59412415 144.52824251 C8.60092846 150.05167035 8.60180561 155.57507036 8.5985527 161.09850121 C8.598093 161.88780052 8.59763331 162.67709984 8.59715968 163.49031731 C8.59620039 165.09433014 8.59522775 166.69834297 8.5942419 168.30235579 C8.58570713 183.30938104 8.59549113 198.31635112 8.611643 213.32336732 C8.6250366 226.1644177 8.62272227 239.00538665 8.60888672 251.84643555 C8.59278342 266.79897196 8.58653913 281.75146011 8.59572351 296.70400399 C8.59667904 298.30268649 8.59762215 299.90136899 8.5985527 301.5000515 C8.59901553 302.28639351 8.59947836 303.07273552 8.59995521 303.88290608 C8.60253148 309.38998532 8.59820356 314.89703361 8.59111404 320.40410805 C8.58264549 327.12957867 8.58509013 333.85494443 8.60095628 340.58040325 C8.60876896 344.00347141 8.61205266 347.42636564 8.60200882 350.84943199 C8.55536024 371.82341491 9.35138058 390.07786947 19 409 C19.69416016 410.38445312 19.69416016 410.38445312 20.40234375 411.796875 C27.82697356 425.31185333 40.13741996 436.21516952 53.6875 443.25 C54.2858667 443.56743164 54.8842334 443.88486328 55.50073242 444.21191406 C71.08056142 451.88384539 86.82003046 451.58144889 103.81411159 451.50823963 C107.4440284 451.49702526 111.07388361 451.50910659 114.70379639 451.51808167 C121.79519757 451.53194524 128.8864195 451.52450941 135.977812 451.50940608 C144.25136408 451.49246219 152.52487255 451.49576673 160.79843663 451.49950016 C175.56870405 451.50536605 190.33888597 451.49125679 205.10913086 451.46655273 C219.41319991 451.44263137 233.71715477 451.43555182 248.02124023 451.44604492 C263.63149876 451.45747583 279.2417046 451.45935774 294.85196251 451.44494683 C296.51910046 451.44342113 298.18623842 451.44190077 299.85337639 451.44038582 C300.67345057 451.439628 301.49352476 451.43887019 302.33844968 451.43808941 C308.09386687 451.43336369 313.84926039 451.43518578 319.6046772 451.43945122 C326.62597757 451.44439767 333.64717039 451.43830572 340.66844625 451.41855692 C344.24493203 451.40874229 347.82125469 451.40351605 351.39774895 451.41144943 C355.28732717 451.41990027 359.17662363 451.40481684 363.06617737 451.38768005 C364.73475031 451.39669512 364.73475031 451.39669512 366.43703181 451.40589231 C387.97323805 451.23444235 405.8699983 442.90367832 421.25 428.125 C433.68262161 415.20135858 440.40045246 400.32040349 444 383 C444.26582556 381.81250471 444.26582556 381.81250471 444.53702134 380.60101962 C445.00513962 377.97112556 445.1287517 375.55681068 445.13422108 372.88759232 C445.14090784 371.3678831 445.14090784 371.3678831 445.14772969 369.8174727 C445.14754533 368.71136698 445.14736097 367.60526127 445.14717102 366.46563721 C445.15268605 364.69475034 445.15268605 364.69475034 445.1583125 362.88808799 C445.16742129 359.61434089 445.1720451 356.34062326 445.17470181 353.06686568 C445.17861285 349.53420853 445.18819089 346.00156578 445.19691467 342.46891785 C445.21666064 333.93692042 445.22674475 325.40492184 445.23564246 316.87290728 C445.24003004 312.8494723 445.24539578 308.82603863 445.25063133 304.80260468 C445.26764479 291.41676736 445.28213584 278.03093085 445.28938007 264.64508438 C445.29128981 261.17273202 445.29321016 257.70037967 445.29516602 254.22802734 C445.29564976 253.36504523 445.2961335 252.50206312 445.2966319 251.61293003 C445.30492047 237.65376093 445.33023699 223.69467785 445.36274669 209.73554626 C445.39589308 195.3852767 445.41383582 181.03505071 445.41702431 166.68474269 C445.41918284 158.63530694 445.42783426 150.58599649 445.45348549 142.53659821 C445.47529663 135.67653987 445.48319229 128.81663726 445.47351871 121.95654818 C445.46900335 118.46272588 445.47069626 114.96922411 445.49028015 111.4754467 C445.66374779 85.7156262 445.66374779 85.7156262 437.25 61.625 C436.90783447 60.97273438 436.56566895 60.32046875 436.21313477 59.6484375 C433.00841602 53.69733995 429.23189193 48.26827363 425 43 C424.20722656 41.94425781 424.20722656 41.94425781 423.3984375 40.8671875 C412.41945663 27.07585685 393.99486806 18.94816948 377 16 C375.24271098 15.91071027 373.48259125 15.86925683 371.72303867 15.86577892 C370.67321515 15.86132108 369.62339162 15.85686324 368.54175526 15.85227031 C367.39469371 15.85245467 366.24763215 15.85263903 365.06581116 15.85282898 C363.84226769 15.84915229 362.61872423 15.8454756 361.35810369 15.8416875 C357.96454178 15.83257708 354.57102817 15.82795457 351.17745864 15.82529819 C347.51602358 15.82138793 343.85460243 15.81181 340.19317627 15.80308533 C331.35121788 15.78333969 322.50925837 15.77325641 313.66728345 15.76435754 C309.49951122 15.7599709 305.33174026 15.754605 301.16396904 15.74936867 C287.30202657 15.73235711 273.44008488 15.71786461 259.57813358 15.71061993 C255.98234621 15.70871015 252.38655884 15.7067898 248.79077148 15.70483398 C247.89709629 15.70435024 247.0034211 15.7038665 246.08266484 15.7033681 C231.61708149 15.69507404 217.15158099 15.66974734 202.68603379 15.63725331 C187.82162313 15.60413665 172.9572545 15.58616695 158.09280676 15.58297569 C149.75227465 15.58081468 141.41186332 15.57212641 133.07136726 15.54651451 C125.96565337 15.52474435 118.8600896 15.51678794 111.75434614 15.52648129 C108.13330813 15.53100802 104.51257943 15.52923582 100.8915844 15.50971985 C96.95327745 15.48867847 93.01539009 15.49913138 89.07704163 15.51225281 C87.95005657 15.50128356 86.82307151 15.49031432 85.66193539 15.47901267 C74.42228136 15.56887279 63.70551927 18.54414539 53.75 23.75 Z " fill="#F4F5E9" transform="translate(0,0)"/>
<path d="M0 0 C6.5922448 2.95739045 10.94552857 8.67036823 14.4140625 14.82421875 C16.80664594 22.84641029 15.3758918 28.65300898 12.44921875 36.39453125 C10.4765625 39.38671875 10.4765625 39.38671875 8.35387993 40.58320713 C5.41423612 42.24646612 3.57759258 43.72259862 1.4765625 46.38671875 C0.09905652 52.31109597 0.28581643 58.1657962 0.37548828 64.22045898 C0.36983784 66.05086808 0.36029723 67.88126868 0.34716797 69.7116394 C0.32325671 74.67301609 0.35555401 79.63258126 0.39935923 84.59376407 C0.43708882 89.79101627 0.42763278 94.98820374 0.42453003 100.18556213 C0.42645562 108.91413366 0.46354707 117.64200203 0.52294922 126.37036133 C0.59127033 136.45265555 0.61062276 146.53409746 0.6021806 156.61660045 C0.59464621 166.32526367 0.61564786 176.03364153 0.65172958 185.74223518 C0.66694025 189.86925574 0.67333956 193.99615003 0.67282486 198.12319756 C0.67395817 202.98674141 0.70048538 207.84952012 0.74638367 212.71284103 C0.75935146 214.49454568 0.7639438 216.2763346 0.75941086 218.05808067 C0.36916624 229.69148281 0.36916624 229.69148281 5.02031326 239.97344398 C9.83531904 244.64635709 13.67700153 245.9813497 20.28271484 245.92016602 C21.04127274 245.92878159 21.79983063 245.93739716 22.58137512 245.9462738 C25.075436 245.9688753 27.56836766 245.9622051 30.0625 245.953125 C31.80596244 245.95836395 33.54942203 245.96464143 35.2928772 245.97190857 C38.94278318 245.9823026 42.59229907 245.97776694 46.2421875 245.96313477 C50.90505629 245.94596609 55.56669058 245.96942305 60.22942162 246.00462437 C63.82929554 246.02665519 67.4288768 246.02514292 71.02879715 246.01685905 C72.74709043 246.0160423 74.46540579 246.02285276 76.18363571 246.03763008 C87.65990053 246.41436471 87.65990053 246.41436471 97.96353149 242.04429626 C102.56982839 236.99793957 104.06457438 233.04994748 103.97485352 226.28930664 C103.98037231 225.49988174 103.98589111 224.71045685 103.99157715 223.89710999 C104.00086744 222.19150842 104.00102694 220.48583747 103.99298286 218.78022957 C103.98031462 216.07647875 103.99167751 213.37374311 104.00901794 210.67002869 C104.03568969 205.90351345 104.04131485 201.13724829 104.03991699 196.3706665 C104.03768677 188.7456851 104.05190435 181.12101352 104.09550285 173.49615288 C104.10530966 170.83996526 104.09664019 168.18426865 104.08680725 165.52809143 C104.09295452 163.88989953 104.09986727 162.25171026 104.10766602 160.61352539 C104.09994675 159.88135803 104.09222748 159.14919067 104.08427429 158.39483643 C104.16532559 150.10785475 107.69645363 143.23288778 113.48828125 137.33984375 C121.98528782 129.43430962 128.13672987 127.93349359 139.53515625 128.09375 C140.67944595 128.09799484 141.82373566 128.10223969 143.00270081 128.10661316 C146.64006561 128.12334071 150.27686652 128.1609831 153.9140625 128.19921875 C156.38736176 128.21427319 158.86066975 128.22796027 161.33398438 128.24023438 C167.38170124 128.27322489 173.42909157 128.32336562 179.4765625 128.38671875 C179.77079102 127.60119629 180.06501953 126.81567383 180.36816406 126.00634766 C182.59269529 120.7488102 187.70109755 117.60981682 192.2890625 114.44921875 C199.03063993 112.20202627 205.31820618 112.49194957 211.7890625 115.44921875 C218.72395804 119.35697735 223.1399459 124.72780877 225.4765625 132.38671875 C226.64995605 140.96263211 224.35341702 148.76306215 219.2890625 155.76171875 C212.65597185 161.95260335 205.82299863 163.18474257 196.85546875 162.89453125 C191.67757207 162.11635025 188.05160981 160.19631191 184.4765625 156.38671875 C184.18323029 155.75243958 183.88989807 155.1181604 183.587677 154.46466064 C182.43532154 152.0546462 181.3544806 150.29673731 179.4765625 148.38671875 C175.7238379 147.21534159 172.09547276 147.35851637 168.19140625 147.46484375 C167.09816544 147.46667664 166.00492462 147.46850952 164.8785553 147.47039795 C162.57112219 147.48246511 160.26372008 147.51394465 157.95678711 147.56347656 C154.42249378 147.63654444 150.89239189 147.64551517 147.35742188 147.64453125 C145.11454706 147.66419303 142.87170065 147.68750685 140.62890625 147.71484375 C139.5715477 147.71929504 138.51418915 147.72374634 137.42478943 147.72833252 C136.44019241 147.75385193 135.4555954 147.77937134 134.44116211 147.80566406 C133.57688095 147.82091125 132.71259979 147.83615845 131.8221283 147.85186768 C128.53491537 148.60143921 127.41222358 149.62701674 125.4765625 152.38671875 C125.09894217 155.12027819 124.96206953 157.44868156 125.01000977 160.17773438 C125.00770355 160.95883575 125.00539734 161.73993713 125.00302124 162.54470825 C125.00039329 164.23945489 125.00683018 165.93423438 125.02127266 167.62892151 C125.04319938 170.32128814 125.03942731 173.01253323 125.02879333 175.70495605 C125.00714034 182.39800113 125.02434777 189.09079893 125.05029297 195.78381348 C125.07181201 201.43112692 125.0734622 207.0777189 125.04737663 212.72502136 C125.04306416 215.3596815 125.06755966 217.9930483 125.09291077 220.62756348 C125.105464 234.18331884 122.31903074 245.4056242 112.4765625 255.38671875 C101.14578846 265.00838162 88.58885412 264.85102035 74.4765625 264.8203125 C72.63150848 264.82488166 70.78645615 264.83018941 68.94140625 264.8361969 C65.08847099 264.84509516 61.23574339 264.84274182 57.3828125 264.83276367 C52.46709589 264.82126789 47.55209702 264.84151162 42.63647461 264.87068081 C38.83068357 264.88910194 35.02506276 264.88873878 31.21923828 264.88304329 C29.40770459 264.88289085 27.59615879 264.88887034 25.78466797 264.90133476 C13.15554096 264.97601733 2.94695033 264.49849452 -6.70703125 255.37109375 C-13.89774296 247.51543451 -18.01510526 238.93698181 -17.88420105 228.21154785 C-17.88676432 227.4288375 -17.8893276 226.64612716 -17.89196855 225.83969831 C-17.89687746 223.23862019 -17.88046194 220.63813327 -17.86401367 218.03710938 C-17.86316677 216.16403212 -17.86364377 214.29095387 -17.86534119 212.4178772 C-17.86620011 207.34817683 -17.84859099 202.27869044 -17.82761931 197.20903969 C-17.80883534 191.90528073 -17.80710071 186.60151658 -17.80354309 181.29772949 C-17.79422769 171.2610636 -17.7696207 161.22449601 -17.73949462 151.18787336 C-17.70593493 139.75865676 -17.68946065 128.3294354 -17.67440832 116.90018177 C-17.64307074 93.39563964 -17.59032002 69.89118471 -17.5234375 46.38671875 C-18.66619141 45.95746094 -18.66619141 45.95746094 -19.83203125 45.51953125 C-26.72705336 42.61741745 -29.79370364 38.07806637 -32.5234375 31.38671875 C-34.45104784 25.60388772 -34.63345101 19.32354416 -32.46484375 13.5859375 C-25.35415426 0.88690125 -14.06528104 -3.4183423 0 0 Z " fill="#F8FCFC" transform="translate(126.5234375,84.61328125)"/>
<path d="M0 0 C0.969375 0.86625 1.93875 1.7325 2.9375 2.625 C5.05338701 4.5135533 6.86196029 5.9344764 9.43239212 7.1545887 C12.22111749 8.51403537 13.9743826 9.63286594 16 12 C17.3428124 17.47474512 17.14542405 22.89887265 17.03417969 28.49169922 C17.03331749 30.1907425 17.03648818 31.88979189 17.04338074 33.58882141 C17.04969155 37.24472408 17.02776809 40.89898031 16.98394012 44.55462265 C16.91492253 50.34817668 16.91040619 56.14070303 16.91461182 61.93460083 C16.91375705 72.15767645 16.85778156 82.37990174 16.7901001 92.60272217 C16.68916959 107.95427863 16.63528748 123.30596009 16.62655759 138.65783894 C16.62129751 144.40246304 16.58910779 150.14609221 16.53459215 155.89045215 C16.50512332 159.48690845 16.49646406 163.08321883 16.49270058 166.67978477 C16.48664105 168.33083508 16.47207569 169.98188302 16.44772148 171.63276482 C16.17584982 190.71171627 21.30092103 206.58804277 34.58984375 220.7421875 C47.44580618 232.78553642 62.86332649 233.62899384 79.515625 233.6015625 C81.50039013 233.60935603 83.48515199 233.61802934 85.46990967 233.62753296 C89.615304 233.64238647 93.76035747 233.6419279 97.90576172 233.63134766 C103.17534375 233.61978021 108.44351475 233.65359834 113.71286392 233.700037 C117.80887789 233.72974004 121.90456113 233.73122431 126.00066376 233.72501755 C127.94122862 233.726033 129.88181475 233.73629847 131.82227325 233.75664139 C149.85452999 233.92249011 164.36992664 230.43942599 178.13671875 218.08203125 C189.74909072 206.29270885 193.29682918 190.90586671 193.24382973 174.89885902 C193.23818227 172.69973669 193.24748021 170.50113113 193.2610321 168.30204773 C193.29795198 162.05574967 193.31666891 155.8096369 193.30541992 149.56323242 C193.29956332 145.72821577 193.31784281 141.89393833 193.35130882 138.05907249 C193.35924532 136.60348769 193.35800948 135.14782195 193.34728432 133.69225502 C193.33293089 131.65855837 193.35192264 129.62470952 193.37231445 127.59106445 C193.37294388 126.43604935 193.3735733 125.28103424 193.3742218 124.09101868 C194.18864817 120.06817619 195.87313609 118.56647635 199 116 C202.02648335 115.09261859 203.7496807 115.53566867 207 116 C209.99218378 118.18561574 210.89517736 119.37634428 211.5146637 123.0620575 C211.52086227 124.26320694 211.52706085 125.46435638 211.53344727 126.7019043 C211.54206284 127.36768494 211.55067841 128.03346558 211.55955505 128.71942139 C211.58225261 130.92141689 211.57545909 133.12214062 211.56640625 135.32421875 C211.571648 136.86961744 211.5779265 138.41501293 211.58518982 139.96040344 C211.59560683 143.20788551 211.59102598 146.45493003 211.57641602 149.70239258 C211.5594076 153.81520958 211.5824894 157.92660581 211.61790562 162.03926373 C211.64016399 165.23890525 211.63836771 168.43822332 211.6301403 171.63791847 C211.62933265 173.1506078 211.63596324 174.66332388 211.65091133 176.17593956 C211.83031143 197.6544832 204.72222852 216.04708035 189.58203125 231.44921875 C188.72996094 232.29097656 187.87789062 233.13273438 187 234 C186.10861328 234.90685547 186.10861328 234.90685547 185.19921875 235.83203125 C169.57516151 250.52562354 148.69605 251.62769396 128.48828125 251.53125 C126.46103226 251.53395373 124.43378454 251.53784341 122.40653992 251.54284668 C118.18846102 251.54869632 113.97072423 251.54032408 109.75268555 251.52148438 C104.38355306 251.49865348 99.0152189 251.5118734 93.6461153 251.53577423 C89.47043481 251.55031812 85.29493963 251.54558783 81.11925316 251.53526306 C79.1407785 251.53262174 77.16228622 251.53577255 75.18383217 251.54518127 C52.70403601 251.62869942 36.38708003 246.18815669 19.515625 230.72265625 C6.70995603 217.45333375 -0.19485612 199.29509803 -0.12025452 180.98304749 C-0.12110894 180.20527512 -0.12196337 179.42750275 -0.12284368 178.62616152 C-0.12448274 176.03598808 -0.11900303 173.4458803 -0.11352539 170.85571289 C-0.11324315 168.99263511 -0.11340197 167.12955721 -0.1139679 165.26647949 C-0.11425444 160.21952453 -0.10838074 155.1725934 -0.10139394 150.12564397 C-0.09513667 144.84722722 -0.09455472 139.5688099 -0.09336853 134.29039001 C-0.09026222 124.2997735 -0.08205825 114.30916794 -0.07201904 104.31855625 C-0.06083619 92.9425538 -0.05534198 81.56655083 -0.05032361 70.19054425 C-0.03987506 46.79369009 -0.02228915 23.39684566 0 0 Z " fill="#7CC999" transform="translate(74,133)"/>
<path d="M0 0 C2.83920802 1.75295232 4.81449843 3.60617517 6.9296875 6.19140625 C7.39503906 6.74441406 7.86039063 7.29742187 8.33984375 7.8671875 C12.64139639 13.6545132 12.88806805 19.17533734 11.9296875 26.19140625 C10.20510024 33.4143835 7.16682999 38.1532563 0.9296875 42.19140625 C-5.54241882 46.15392032 -12.64876781 46.21680654 -20.0703125 45.19140625 C-25.21953204 43.11403871 -28.38241243 40.74657075 -30.64990234 35.62036133 C-32.7182427 32.73389108 -33.83714231 32.23739349 -37.37736511 31.53916931 C-41.83559066 31.19907061 -46.29439326 31.2709508 -50.76171875 31.33203125 C-52.42976492 31.33239536 -54.09781314 31.33038385 -55.76585388 31.32611084 C-59.26408046 31.32481644 -62.76105139 31.34777133 -66.2590332 31.38867188 C-70.71205591 31.43947104 -75.1630812 31.43761666 -79.61628819 31.41806412 C-83.06457925 31.40768734 -86.51242349 31.42230115 -89.96064568 31.44445038 C-91.60023947 31.45273927 -93.23988265 31.45435301 -94.87948799 31.44879913 C-104.89940012 31.43432926 -113.02611862 32.46117775 -122.0703125 37.19140625 C-123.57187645 37.9208847 -123.57187645 37.9208847 -125.10377502 38.6651001 C-137.58454063 44.81606467 -145.24011783 55.06235242 -150.11048985 67.94218349 C-152.85752466 76.16552035 -153.62815114 83.4546066 -153.53686523 92.08813477 C-153.53741568 93.42344857 -153.53980094 94.75876266 -153.54385376 96.09407043 C-153.54898011 98.93961867 -153.54210732 101.78477745 -153.52560234 104.63028145 C-153.50025858 109.1313953 -153.50682567 113.63213465 -153.51808167 118.13328552 C-153.54115942 129.29892328 -153.52278068 140.46444637 -153.49658203 151.63006592 C-153.47663663 160.33857291 -153.46802691 169.04677742 -153.49351841 177.75528473 C-153.50532546 182.22948066 -153.49370651 186.7028113 -153.4642657 191.1769172 C-153.44791464 194.60443916 -153.46371532 198.03168696 -153.47436523 201.45922852 C-153.45945541 202.69612427 -153.44454559 203.93302002 -153.42918396 205.20739746 C-153.49919617 213.53681148 -153.49919617 213.53681148 -156.47865295 216.95176697 C-158.8924482 218.10633042 -160.41795758 218.75925374 -163.0703125 218.75390625 C-163.7096875 218.77582031 -164.3490625 218.79773438 -165.0078125 218.8203125 C-168.34675644 217.80218755 -170.35099115 216.16446687 -172.0703125 213.19140625 C-172.82507133 208.9672227 -172.72182555 204.77835224 -172.66967773 200.49755859 C-172.67362045 199.20751923 -172.67756317 197.91747986 -172.68162537 196.58834839 C-172.6915939 193.05465413 -172.67043449 189.52176316 -172.64314532 185.98818541 C-172.61926534 182.28043935 -172.62225979 178.57270793 -172.62184143 174.86489868 C-172.61721344 168.63228835 -172.59358384 162.39998344 -172.55737305 156.16748047 C-172.51574938 148.98471029 -172.49806445 141.80221563 -172.4947533 134.61933172 C-172.49113681 126.94962935 -172.47222745 119.28002473 -172.44763303 111.61036348 C-172.44143592 109.41286332 -172.43777962 107.21537063 -172.43459892 105.01786423 C-172.42753375 100.89899903 -172.40306914 96.78040798 -172.37670898 92.66162109 C-172.37604431 91.45602539 -172.37537964 90.25042969 -172.37469482 89.00830078 C-172.19057956 68.05187615 -165.53555545 49.56907221 -151.0703125 34.19140625 C-133.79539886 17.66652388 -114.40730222 11.30604516 -91.00390625 11.703125 C-89.3466958 11.71248497 -87.68947123 11.71958594 -86.03224182 11.7245636 C-81.73304005 11.74338378 -77.43472339 11.79225808 -73.13586426 11.8480835 C-68.72416142 11.89982556 -64.31231135 11.92219322 -59.90039062 11.94726562 C-51.28996463 12.00041016 -42.68024956 12.08540629 -34.0703125 12.19140625 C-33.77084717 11.40588379 -33.47138184 10.62036133 -33.1628418 9.81103516 C-30.95891165 4.52652778 -26.64876361 1.13240595 -21.8203125 -1.74609375 C-14.11564042 -3.92908417 -7.17750187 -3.66537907 0 0 Z " fill="#F7FCFB" transform="translate(368.0703125,93.80859375)"/>
<path d="M0 0 C1.92103294 -0.02421524 1.92103294 -0.02421524 3.88087463 -0.04891968 C6.58309369 -0.07882215 9.28521055 -0.09857303 11.98754883 -0.11376953 C15.43256227 -0.13593115 18.8750031 -0.20481538 22.3191061 -0.28411293 C25.6292957 -0.34924409 28.93921968 -0.3580121 32.25 -0.375 C33.47730331 -0.41001617 34.70460663 -0.44503235 35.96910095 -0.48110962 C42.14989654 -0.44988004 45.80915409 -0.15526182 50.26977539 4.35009766 C50.84240616 5.05155914 51.41503693 5.75302063 52.00502014 6.47573853 C55.73611503 10.90252079 61.27895732 13.61603318 66.69140625 15.4765625 C66.69140625 16.1365625 66.69140625 16.7965625 66.69140625 17.4765625 C63.18342185 18.64589063 60.02682141 18.62116524 56.37768555 18.6184082 C55.63586029 18.62188263 54.89403503 18.62535706 54.12973022 18.62893677 C52.51900163 18.63628666 50.90826295 18.64163613 49.29752159 18.64522743 C46.74577522 18.65239954 44.19422039 18.66807187 41.64253235 18.68656921 C34.38744744 18.73900212 27.13246757 18.78700682 19.87719727 18.80249023 C15.43853003 18.81258368 11.00034515 18.84194223 6.56186867 18.88381004 C4.87267521 18.89610542 3.18341359 18.90124397 1.49417686 18.89901161 C-0.87330029 18.89665292 -3.23939894 18.91886594 -5.60668945 18.9465332 C-6.30041153 18.93993179 -6.99413361 18.93333038 -7.70887756 18.92652893 C-12.67345852 19.02149125 -15.46339292 20.40659292 -19.30859375 23.4765625 C-22.32736272 26.83075025 -25.19099672 30.10395958 -25.42114258 34.74731445 C-25.36982178 35.56159912 -25.31850098 36.37588379 -25.265625 37.21484375 C-24.90439694 48.54888147 -24.90439694 48.54888147 -26.30859375 53.4765625 C-30.15109506 57.39472488 -34.17350288 58.78514631 -39.30859375 60.4765625 C-40.99035451 61.45096412 -42.6598689 62.44725003 -44.30859375 63.4765625 C-44.48430884 58.89097793 -44.60987509 54.30743495 -44.69311523 49.71923828 C-44.72788118 48.16550492 -44.77531424 46.61199269 -44.83666992 45.05908203 C-45.34495716 31.84361376 -43.13138993 21.67258179 -33.99609375 11.4765625 C-23.52419415 2.18128083 -13.59525132 0.16338559 0 0 Z " fill="#78C899" transform="translate(276.30859375,142.5234375)"/>
<path d="M0 0 C1.47107208 0.00033989 1.47107208 0.00033989 2.97186279 0.00068665 C4.02303284 0.0161705 5.07420288 0.03165436 6.15722656 0.04760742 C7.23917297 0.05185226 8.32111938 0.05609711 9.43585205 0.06047058 C12.89010546 0.07725772 16.3437746 0.1149109 19.79785156 0.15307617 C22.14029105 0.16812292 24.48273969 0.18181134 26.82519531 0.1940918 C32.56627994 0.22716137 38.30702401 0.27736151 44.04785156 0.34057617 C44.54285156 1.33057617 44.54285156 1.33057617 45.04785156 2.34057617 C44.14036163 2.34604462 44.14036163 2.34604462 43.21453857 2.35162354 C36.92014084 2.39341979 30.62647425 2.462745 24.33251953 2.5480957 C21.98331005 2.57632905 19.63400515 2.59753175 17.28466797 2.61157227 C13.90835639 2.63296841 10.5331949 2.67960354 7.15722656 2.73120117 C6.10605652 2.73242981 5.05488647 2.73365845 3.97186279 2.73492432 C2.99114807 2.75464294 2.01043335 2.77436157 1 2.79467773 C-0.29239594 2.8080014 -0.29239594 2.8080014 -1.61090088 2.82159424 C-4.90494172 3.55178088 -6.01651481 4.57904885 -7.95214844 7.34057617 C-8.33483207 10.08337161 -8.47664201 12.42411999 -8.43457031 15.16333008 C-8.43848282 15.94764404 -8.44239532 16.73195801 -8.44642639 17.54003906 C-8.45239846 19.24132103 -8.44923658 20.94265409 -8.43800354 22.64390945 C-8.42072575 25.34412684 -8.42825981 28.04327479 -8.44226074 30.74349976 C-8.47190164 37.45405717 -8.45876706 44.16441075 -8.44708252 50.875 C-8.43884683 56.53972195 -8.44696145 62.2039772 -8.47621155 67.86863327 C-8.48326063 70.51539616 -8.46667967 73.16131743 -8.44909668 75.80801392 C-8.45276513 84.36723897 -8.63589238 91.66100969 -12.95214844 99.34057617 C-13.61214844 99.01057617 -14.27214844 98.68057617 -14.95214844 98.34057617 C-14.81081345 96.56937814 -14.66391635 94.7986233 -14.51464844 93.02807617 C-14.4334375 92.04194336 -14.35222656 91.05581055 -14.26855469 90.03979492 C-13.95214844 87.34057617 -13.95214844 87.34057617 -12.95214844 84.34057617 C-12.8821456 81.96483976 -12.87613531 79.58707493 -12.90209961 77.21044922 C-12.90837875 76.4881311 -12.9146579 75.76581299 -12.92112732 75.02160645 C-12.9349734 73.4534131 -12.95090812 71.88523713 -12.96867943 70.31708336 C-12.99532809 67.83263254 -13.0131918 65.34827094 -13.02815247 62.86372375 C-13.07089026 55.79961 -13.1184879 48.73567252 -13.19897461 41.671875 C-13.24757677 37.35013842 -13.27651597 33.02864897 -13.29271889 28.70667458 C-13.3026013 27.06204047 -13.31978858 25.41743303 -13.3445034 23.77295494 C-13.37836777 21.46796172 -13.38714222 19.16409852 -13.39038086 16.85888672 C-13.40822884 14.89389473 -13.40822884 14.89389473 -13.42643738 12.88920593 C-12.75397122 7.85781428 -10.63351078 4.94674974 -7.01165771 1.48686218 C-4.49376594 0.08544867 -2.87319428 -0.02221542 0 0 Z " fill="#B7E3E2" transform="translate(259.9521484375,229.659423828125)"/>
<path d="M0 0 C0.66 0 1.32 0 2 0 C2.15673895 16.55600956 2.30459155 33.11207403 2.4429636 49.66824627 C2.50745853 57.36244915 2.57448325 65.05661186 2.64819336 72.75073242 C3.01168331 110.8572484 3.00334847 148.89989227 2 187 C1.34 187 0.68 187 0 187 C0 125.29 0 63.58 0 0 Z " fill="#0B6F51" transform="translate(127,131)"/>
<path d="M0 0 C1.50098991 0.00056648 1.50098991 0.00056648 3.03230286 0.00114441 C4.10018539 0.02695084 5.16806793 0.05275726 6.26831055 0.0793457 C7.37103806 0.08642044 8.47376556 0.09349518 9.60990906 0.1007843 C13.12564446 0.12873207 16.63977673 0.1914753 20.1550293 0.25512695 C22.54107398 0.28020915 24.92714366 0.30302245 27.31323242 0.32348633 C33.15687667 0.37856003 38.99958845 0.46219151 44.8425293 0.56762695 C44.8425293 1.22762695 44.8425293 1.88762695 44.8425293 2.56762695 C44.24784348 2.57793442 43.65315765 2.58824188 43.04045105 2.59886169 C36.86002561 2.7069058 30.67974658 2.82150562 24.49951172 2.93994141 C22.19192564 2.98329694 19.88430736 3.02497155 17.57666016 3.06494141 C14.26284062 3.12262879 10.94918333 3.18632788 7.63549805 3.2512207 C6.6010405 3.2679332 5.56658295 3.28464569 4.5007782 3.30186462 C3.5400087 3.32180984 2.5792392 3.34175507 1.58935547 3.36230469 C0.32027596 3.38562111 0.32027596 3.38562111 -0.97444153 3.40940857 C-3.33706557 3.49036798 -3.33706557 3.49036798 -6.1574707 4.56762695 C-6.99572774 14.30892195 -7.27044611 23.91121395 -7.18481445 33.6887207 C-7.17784261 35.08683422 -7.17163834 36.48495176 -7.16615295 37.8830719 C-7.14203357 43.74374016 -7.1059592 49.60429552 -7.06152344 55.46484375 C-7.03464643 59.07954775 -7.01767342 62.69419175 -7.00665474 66.30897713 C-6.99751736 68.33131288 -6.97714994 70.35358798 -6.95652771 72.37583923 C-6.93982803 78.48292064 -6.98152382 83.82430772 -9.1574707 89.56762695 C-9.4874707 89.56762695 -9.8174707 89.56762695 -10.1574707 89.56762695 C-10.27333401 78.70185557 -10.36217069 67.83623121 -10.41653156 56.96996784 C-10.44262256 51.92425526 -10.47801171 46.87896539 -10.53466797 41.83349609 C-10.58900522 36.96405574 -10.61889498 32.09502188 -10.63185692 27.22530174 C-10.64109371 25.36771431 -10.6591313 23.51014907 -10.68612099 21.65273476 C-10.72243484 19.05006511 -10.72741519 16.44907374 -10.72509766 13.84619141 C-10.74307404 13.07870575 -10.76105042 12.31122009 -10.77957153 11.52047729 C-10.74209156 7.62890289 -10.28673701 5.74179779 -7.94433594 2.58569336 C-4.91699524 0.39349028 -3.67297815 -0.04649339 0 0 Z " fill="#08654C" transform="translate(261.157470703125,231.432373046875)"/>
<path d="M0 0 C2.875 1.4375 2.875 1.4375 5 4 C5.97499943 7.05613857 6.30759211 9.80445974 6 13 C4.23496686 15.92143417 3.04152365 17.47923817 0 19 C-5.15434412 19.50698467 -5.15434412 19.50698467 -8 19 C-10.9375 16.5625 -10.9375 16.5625 -13 14 C-13.33 13.67 -13.66 13.34 -14 13 C-14.39654771 8.87590386 -14.42561229 6.67510915 -12.1875 3.125 C-8.49553063 -0.46148453 -4.96889117 -0.42835269 0 0 Z " fill="#077552" transform="translate(332,213)"/>
<path d="M0 0 C1.10860382 -0.00637985 2.21720764 -0.0127597 3.35940552 -0.01933289 C4.55419525 -0.02044571 5.74898499 -0.02155853 6.97998047 -0.02270508 C8.83367752 -0.02769768 8.83367752 -0.02769768 10.724823 -0.03279114 C13.34242379 -0.03785557 15.96003104 -0.04019961 18.57763672 -0.04003906 C22.5607868 -0.03991807 26.54375085 -0.0603527 30.52685547 -0.0793457 C33.07372953 -0.08228162 35.62060489 -0.08426509 38.16748047 -0.08520508 C39.35012482 -0.09239059 40.53276917 -0.09957611 41.75125122 -0.10697937 C48.3786593 -0.08889531 55.13533221 -0.03293384 61.47216797 2.14526367 C61.96716797 3.13526367 61.96716797 3.13526367 62.47216797 4.14526367 C61.54668152 4.14668869 60.62119507 4.14811371 59.66766357 4.14958191 C50.90033099 4.1674902 42.13349804 4.20933437 33.36640549 4.27735424 C28.86025222 4.31149032 24.35443316 4.33671323 19.84814453 4.34082031 C15.49060955 4.34513221 11.13382679 4.37383146 6.7765274 4.41869545 C5.12300262 4.43157883 3.46938738 4.43601101 1.81581879 4.43141747 C-7.24757468 4.412123 -14.63132783 4.7940722 -22.94256592 8.88105774 C-25.74125502 10.2496284 -28.55859917 11.21294708 -31.52783203 12.14526367 C-26.71067023 6.91051509 -18.72707498 3.32783945 -11.65283203 3.02026367 C-10.95158203 3.06151367 -10.25033203 3.10276367 -9.52783203 3.14526367 C-9.52783203 2.48526367 -9.52783203 1.82526367 -9.52783203 1.14526367 C-6.29341368 0.18555749 -3.36761457 0.01318536 0 0 Z " fill="#C0F5F1" transform="translate(271.52783203125,120.854736328125)"/>
<path d="M0 0 C2.86830829 2.01391859 4.61592935 3.45434983 5.48046875 6.93359375 C5.75226702 10.81957437 5.20941022 12.67575192 3.0625 16 C-1.01080308 18.6601163 -4.25519889 18.98443537 -9 18 C-11.50160818 16.12379387 -12.61945652 14.76108697 -14 12 C-14.375 8.6875 -14.375 8.6875 -14 5 C-9.45613306 -0.5004705 -6.96669891 -1.653115 0 0 Z " fill="#077F5C" transform="translate(122,99)"/>
<path d="M0 0 C3.03978021 0.68164768 4.80055419 2.23591662 6.93359375 4.43359375 C8.41256236 7.39153098 8.36915195 9.13579599 7.93359375 12.43359375 C6.3352423 15.28208436 4.52460465 17.44050844 1.93359375 19.43359375 C-2.62904425 20.41130189 -4.45091468 19.78050718 -8.50390625 17.49609375 C-11.49864523 13.91701546 -11.91955396 12.13854882 -11.578125 7.59375 C-10.11856088 1.43238391 -5.77821305 -0.36045563 0 0 Z " fill="#0D815F" transform="translate(358.06640625,105.56640625)"/>
<path d="M0 0 C-10.4398474 4.61495045 -20.23733 4.55643217 -31.40625 4.4609375 C-33.26281608 4.45854836 -35.11938461 4.45764875 -36.97595215 4.4581604 C-40.84219779 4.45505154 -44.70806756 4.43862443 -48.57421875 4.41162109 C-53.52841389 4.37745282 -58.48220132 4.36999902 -63.43650055 4.37151146 C-67.2591948 4.37096806 -71.08180005 4.36000884 -74.90446472 4.34550858 C-76.73210478 4.3391518 -78.55975488 4.3352043 -80.3874054 4.33372116 C-82.93357622 4.32938701 -85.47931306 4.31188931 -88.02539062 4.29052734 C-88.77761902 4.29143372 -89.52984741 4.29234009 -90.30487061 4.29327393 C-94.02150191 4.2476549 -96.84289811 4.06433296 -100 2 C-97.26094655 0.63047327 -95.02912668 0.87378639 -92 1 C-91.34 1.33 -90.68 1.66 -90 2 C-86.82069832 2.25449812 -83.62572823 2.18965621 -80.4375 2.1875 C-79.43098389 2.18814453 -78.42446777 2.18878906 -77.38745117 2.18945312 C-67.80192849 2.1261776 -58.26993601 1.51000274 -48.71160889 0.85632324 C-37.26919354 0.08183734 -25.92582696 -0.16891217 -14.4543457 -0.01367188 C-13.36726318 -0.00013672 -12.28018066 0.01339844 -11.16015625 0.02734375 C-10.20761963 0.04531006 -9.25508301 0.06327637 -8.27368164 0.08178711 C-0.64239829 -0.19271949 -0.64239829 -0.19271949 0 0 Z " fill="#E6FCFC" transform="translate(232,345)"/>
<path d="M0 0 C2.48425883 -0.28672361 4.71860892 -0.3786773 7.20361328 -0.34057617 C8.3159584 -0.34123329 8.3159584 -0.34123329 9.45077515 -0.34190369 C11.90755331 -0.33980979 14.36365322 -0.31645125 16.8203125 -0.29296875 C18.52138903 -0.28737491 20.22247038 -0.28310381 21.92355347 -0.28010559 C26.4051849 -0.26864004 30.88652559 -0.23915835 35.36804199 -0.20599365 C39.93933173 -0.17532948 44.51066835 -0.16160809 49.08203125 -0.14648438 C58.05481539 -0.11429013 67.02738354 -0.06307329 76 0 C76 0.99 76 1.98 76 3 C50.26 3 24.52 3 -2 3 C-1.34 2.01 -0.68 1.02 0 0 Z " fill="#0F614E" transform="translate(258,125)"/>
<path d="M0 0 C-1.1103172 3.3309516 -2.63079532 4.45626232 -5.53485966 6.1679945 C-8.56406145 8.29384668 -8.92508769 8.70063745 -9.87695217 12.50445271 C-9.91350076 13.87734505 -9.91186564 15.25158492 -9.87974548 16.62458801 C-9.88981001 17.38431732 -9.89987454 18.14404663 -9.91024405 18.92679805 C-9.93545814 21.46887478 -9.91087755 24.00800054 -9.88647461 26.55004883 C-9.89436358 28.37343868 -9.90532462 30.19681745 -9.91912842 32.02017212 C-9.94787704 36.96838028 -9.9336105 41.9156435 -9.91168666 46.86385179 C-9.8960655 52.03558524 -9.91991108 57.20713206 -9.93959045 62.37882996 C-9.97084574 72.17128782 -9.96654894 81.96339535 -9.94951588 91.75587529 C-9.93185205 102.9045814 -9.9537657 114.05309942 -9.97902286 125.20177805 C-10.03008912 148.13458129 -10.03139186 171.06717189 -10 194 C-10.33 194 -10.66 194 -11 194 C-11 132.29 -11 70.58 -11 7 C-9.68 6.34 -8.36 5.68 -7 5 C-7 4.34 -7 3.68 -7 3 C-2.61538462 0 -2.61538462 0 0 0 Z " fill="#BFF3F4" transform="translate(137,122)"/>
<path d="M0 0 C1 3 1 3 0.08242798 5.70315552 C-1.14856138 9.45248624 -1.30678848 12.85051767 -1.31884766 16.74951172 C-1.32889328 17.50141281 -1.3389389 18.2533139 -1.34928894 19.02799988 C-1.37999955 21.49522183 -1.39712202 23.96233587 -1.4140625 26.4296875 C-1.43278393 28.14748047 -1.45235807 29.86526435 -1.4727478 31.58303833 C-1.52397207 36.09072492 -1.5636496 40.5984413 -1.60089111 45.10626221 C-1.64099175 49.71154082 -1.6920564 54.31669658 -1.7421875 58.921875 C-1.8388318 67.94783024 -1.92327323 76.97385501 -2 86 C-4 84 -4 84 -4.24723816 81.22073364 C-4.24581314 80.03559174 -4.24438812 78.85044983 -4.24291992 77.62939453 C-4.24481827 76.97538162 -4.24671661 76.32136871 -4.24867249 75.64753723 C-4.25238888 73.47584186 -4.24165289 71.30447845 -4.23046875 69.1328125 C-4.22927588 67.61742187 -4.22882401 66.10203049 -4.2290802 64.5866394 C-4.22751315 61.40048631 -4.21921525 58.2144452 -4.20581055 55.02832031 C-4.18896489 50.97598253 -4.18499212 46.92376952 -4.18575573 42.87140083 C-4.18548128 39.73465823 -4.17995411 36.59794205 -4.17275429 33.46120834 C-4.16960387 31.96952387 -4.16760885 30.47783644 -4.16686058 28.98614883 C-4.15772585 20.28020184 -3.89727577 11.6657966 -3 3 C-2.01 2.67 -1.02 2.34 0 2 C0 1.34 0 0.68 0 0 Z " fill="#016B51" transform="translate(233,228)"/>
<path d="M0 0 C41.085 0.495 41.085 0.495 83 1 C83 1.33 83 1.66 83 2 C80.72926348 2.16798051 78.45840707 2.33434113 76.1875 2.5 C74.29064453 2.63921875 74.29064453 2.63921875 72.35546875 2.78125 C70.24021483 2.91914781 68.11974408 3 66 3 C64.49999731 3.01136896 62.99999759 3.02313314 61.5 3.03515625 C42.7290807 3.14479747 42.7290807 3.14479747 34 2 C34 2.66 34 3.32 34 4 C29.64533833 3.88952802 25.29149501 3.75903781 20.9375 3.625 C19.09381836 3.57859375 19.09381836 3.57859375 17.21289062 3.53125 C11.15596296 3.33533859 5.71439565 3.08876869 0 1 C0 0.67 0 0.34 0 0 Z " fill="#006649" transform="translate(135,349)"/>
<path d="M0 0 C1.12078523 3.5915474 1.11406938 6.92920642 1.09765625 10.67700195 C1.09546585 11.67050659 1.09546585 11.67050659 1.0932312 12.68408203 C1.08943391 14.11855633 1.08332653 15.55302597 1.07516479 16.98748207 C1.06236503 19.2622687 1.05587582 21.53699676 1.05102539 23.81181335 C1.03767453 29.46348079 1.01351801 35.1150927 0.98962402 40.76672363 C0.9698374 45.54149759 0.95421719 50.31625046 0.94406128 55.09105492 C0.93761381 57.32386954 0.9251038 59.55659674 0.91235352 61.78938293 C0.90871757 63.17119269 0.90536627 64.55300322 0.90234375 65.93481445 C0.89448853 67.73206718 0.89448853 67.73206718 0.88647461 69.56562805 C0.9330231 73.07823007 0.9330231 73.07823007 1.59594727 76.82048035 C2 80 2 80 0.5625 81.9375 C0.046875 82.288125 -0.46875 82.63875 -1 83 C-1.14564422 78.45094217 -1.28786711 73.90179317 -1.42724609 69.35253906 C-1.47486366 67.8127979 -1.52333276 66.27308277 -1.57275391 64.73339844 C-2.07015158 49.20240974 -2.11540883 33.70883333 -1.62768555 18.17602539 C-1.56092253 16.01135331 -1.50209238 13.84654391 -1.44335938 11.68164062 C-1.40151638 10.29946471 -1.35921742 8.91730251 -1.31640625 7.53515625 C-1.27974854 6.301604 -1.24309082 5.06805176 -1.20532227 3.79711914 C-1 1 -1 1 0 0 Z " fill="#04785A" transform="translate(229,239)"/>
<path d="M0 0 C2.10073853 -0.36076355 2.10073853 -0.36076355 4.72509766 -0.34057617 C5.70596344 -0.34034958 6.68682922 -0.34012299 7.69741821 -0.33988953 C8.75891083 -0.32440567 9.82040344 -0.30892181 10.9140625 -0.29296875 C11.99883881 -0.28872391 13.08361511 -0.28447906 14.20126343 -0.28010559 C17.67609167 -0.263273 21.15034618 -0.22561189 24.625 -0.1875 C26.97655414 -0.17245911 29.32811735 -0.15876967 31.6796875 -0.14648438 C37.45332173 -0.11335454 43.22661989 -0.06310982 49 0 C49.495 0.99 49.495 0.99 50 2 C32.84 2.33 15.68 2.66 -2 3 C-1.34 2.01 -0.68 1.02 0 0 Z " fill="#B8EDEC" transform="translate(255,230)"/>
<path d="M0 0 C-6.03969871 2.3488288 -11.1766666 3.42379264 -17.64086914 3.2487793 C-18.45172974 3.23946381 -19.26259033 3.23014832 -20.09802246 3.22055054 C-22.74418628 3.1865255 -25.38938222 3.13057666 -28.03515625 3.07421875 C-29.88315343 3.04614843 -31.73117211 3.01946205 -33.57920837 2.99409485 C-38.41765121 2.92399341 -43.25557412 2.83522117 -48.09362793 2.74243164 C-53.04075662 2.65089725 -57.98814835 2.57719702 -62.93554688 2.50195312 C-72.62403591 2.35199538 -82.31206916 2.18229296 -92 2 C-92 1.67 -92 1.34 -92 1 C-91.0155188 0.98969254 -90.0310376 0.97938507 -89.01672363 0.96876526 C-79.71855411 0.87081827 -70.42044834 0.7680651 -61.12238312 0.66066074 C-56.34267881 0.60560215 -51.56296823 0.55221043 -46.78320312 0.50268555 C-42.1666104 0.45478906 -37.5500873 0.40243898 -32.93357849 0.34705925 C-31.1762415 0.32674968 -29.4188855 0.30801866 -27.66151428 0.29092598 C-25.19159108 0.26662759 -22.72179636 0.23661068 -20.25195312 0.20532227 C-19.53265625 0.1995668 -18.81335938 0.19381134 -18.07226562 0.18788147 C-14.57224798 0.13780173 -11.20102538 -0.07682241 -7.73425293 -0.57533264 C-4.48087617 -0.94531372 -2.99428579 -0.89245339 0 0 Z " fill="#89D3A7" transform="translate(228,367)"/>
<path d="M0 0 C0.66 0.33 1.32 0.66 2 1 C4.47072509 1.12209616 6.91517208 1.18562086 9.38720703 1.20532227 C10.52881287 1.22017166 10.52881287 1.22017166 11.69348145 1.23532104 C14.21489324 1.26696678 16.73632388 1.29170557 19.2578125 1.31640625 C21.00373836 1.33697313 22.74965922 1.35796953 24.49557495 1.37937927 C29.09539742 1.43462746 33.69526503 1.4840246 38.29516602 1.53222656 C42.98718289 1.58242155 47.67913405 1.63811805 52.37109375 1.69335938 C61.58067306 1.80097454 70.79030937 1.90241204 80 2 C80 2.33 80 2.66 80 3 C69.11686126 3.04632061 58.23374593 3.08186784 47.35052872 3.10362434 C42.29712698 3.11406585 37.24379264 3.12823181 32.19042969 3.15087891 C27.31454556 3.17259411 22.4387263 3.18456586 17.56279755 3.18975449 C15.70164722 3.19345261 13.84050049 3.20067403 11.97937775 3.21146011 C9.37451986 3.22595741 6.76993074 3.22797868 4.16503906 3.22705078 C3.00841766 3.23783661 3.00841766 3.23783661 1.82843018 3.24884033 C-1.93505473 3.23431382 -4.80822605 3.11217835 -8 1 C-5.26094655 -0.36952673 -3.02912668 -0.12621361 0 0 Z " fill="#AFEEF1" transform="translate(140,346)"/>
<path d="M0 0 C0.66 0.33 1.32 0.66 2 1 C0.71937515 2.7074998 -0.61767557 4.37373596 -2 6 C-2.66 6 -3.32 6 -4 6 C-4 6.66 -4 7.32 -4 8 C-5.609375 9.515625 -5.609375 9.515625 -7.75 11.25 C-12.10163143 14.94927046 -14.77783042 18.88470649 -17.625 23.8125 C-19 26 -19 26 -21 27 C-19.62479901 16.50702804 -9.48422779 7.76084518 -2 1 C-1.34 0.67 -0.68 0.34 0 0 Z " fill="#0E7158" transform="translate(41,32)"/>
<path d="M0 0 C0.66 0 1.32 0 2 0 C2 0.66 2 1.32 2 2 C2.99 2.33 3.98 2.66 5 3 C7.48002752 6.43897149 7.26748345 9.87390514 7.25 14 C7.25773437 15.8253125 7.25773437 15.8253125 7.265625 17.6875 C7.01981559 20.75288791 6.6149234 22.43662952 5 25 C4.34 25 3.68 25 3 25 C3.03480469 23.84242187 3.06960938 22.68484375 3.10546875 21.4921875 C3.13362207 19.9531396 3.16092056 18.41407589 3.1875 16.875 C3.21263672 16.11445312 3.23777344 15.35390625 3.26367188 14.5703125 C3.32848902 9.55778692 2.56832348 6.43558228 0 2 C0 1.34 0 0.68 0 0 Z " fill="#076A50" transform="translate(376,100)"/>
<path d="M0 0 C0.625 1.75 0.625 1.75 1 4 C0.68160156 4.598125 0.36320312 5.19625 0.03515625 5.8125 C-2.84913428 11.90760453 -0.97866379 20.51635242 0 27 C-3.93305779 23.06694221 -4.18762333 18.40942726 -4.375 13.0625 C-4.30604279 7.52523615 -3.23341837 4.44595026 0 0 Z " fill="#BFE7E6" transform="translate(97,94)"/>
<path d="M0 0 C0 0.66 0 1.32 0 2 C-6.625 4.875 -6.625 4.875 -10 6 C-9.87625 7.258125 -9.7525 8.51625 -9.625 9.8125 C-9.55539063 10.52019531 -9.48578125 11.22789063 -9.4140625 11.95703125 C-9.07334609 14.29988142 -9.07334609 14.29988142 -7 17 C-7.66 17.33 -8.32 17.66 -9 18 C-11.96856976 13.91821657 -12.71729245 11.02104714 -12 6 C-8.17031559 1.36406623 -5.90909269 -0.15550244 0 0 Z " fill="#207E61" transform="translate(120,98)"/>
<path d="M0 0 C0.33 0 0.66 0 1 0 C2.24056034 7.44336205 2.52036411 14.55021587 1 22 C0.34 22.33 -0.32 22.66 -1 23 C-1.02894547 19.54168414 -1.04678 16.08339928 -1.0625 12.625 C-1.07087891 11.64015625 -1.07925781 10.6553125 -1.08789062 9.640625 C-1.09111328 8.69960937 -1.09433594 7.75859375 -1.09765625 6.7890625 C-1.10289307 5.91975098 -1.10812988 5.05043945 -1.11352539 4.15478516 C-1 2 -1 2 0 0 Z " fill="#027155" transform="translate(216,171)"/>
<path d="M0 0 C0.66 0.33 1.32 0.66 2 1 C3.95774069 1.15378852 5.92017352 1.24971463 7.8828125 1.31640625 C9.04941406 1.35830078 10.21601563 1.40019531 11.41796875 1.44335938 C12.64128906 1.48267578 13.86460937 1.52199219 15.125 1.5625 C16.35605469 1.60568359 17.58710938 1.64886719 18.85546875 1.69335938 C21.90352853 1.79968704 24.9516719 1.90171781 28 2 C28 2.33 28 2.66 28 3 C23.5159659 3.04951788 19.03207761 3.08577526 14.54785156 3.10986328 C13.02308377 3.11990744 11.49833516 3.13354531 9.97363281 3.15087891 C7.77924862 3.17519738 5.58511958 3.18649889 3.390625 3.1953125 C1.4111084 3.21102295 1.4111084 3.21102295 -0.60839844 3.22705078 C-3.73220559 3.0179275 -5.40580238 2.66605136 -8 1 C-5.26094655 -0.36952673 -3.02912668 -0.12621361 0 0 Z " fill="#CBFBFB" transform="translate(140,346)"/>
<path d="M0 0 C1.890625 0.828125 1.890625 0.828125 4.453125 2.328125 C0.90062236 3.51229255 -0.88930579 2.95980664 -4.546875 2.328125 C-7.94330294 2.30047966 -11.32382952 2.39139425 -14.71875 2.48828125 C-17.546875 2.328125 -17.546875 2.328125 -19.546875 0.328125 C-14.51318059 -2.1887222 -5.40010506 -1.42456759 0 0 Z " fill="#CBF2EC" transform="translate(126.546875,84.671875)"/>
<path d="M0 0 C2.875 1.4375 2.875 1.4375 5 4 C5.69691293 6.99930674 5.92775801 9.92643191 6 13 C5.01 13.495 5.01 13.495 4 14 C3.67 11.03 3.34 8.06 3 5 C-1.19239732 3.40289626 -4.52231368 2.80099172 -9 3 C-9.99 3 -10.98 3 -12 3 C-7.90893759 0.02468188 -5.02938055 -0.62867257 0 0 Z " fill="#54A994" transform="translate(332,213)"/>
<path d="M0 0 C1.32 0.33 2.64 0.66 4 1 C3.35256836 1.53915039 2.70513672 2.07830078 2.03808594 2.63378906 C-0.48889437 5.56760473 -0.53130006 7.03370318 -0.609375 10.859375 C-0.64160156 11.97441406 -0.67382812 13.08945313 -0.70703125 14.23828125 C-0.72121094 15.39714844 -0.73539063 16.55601562 -0.75 17.75 C-0.77964844 18.92433594 -0.80929688 20.09867188 -0.83984375 21.30859375 C-0.91050727 24.20579822 -0.96322266 27.10219955 -1 30 C-1.33 30 -1.66 30 -2 30 C-2.02505615 29.41508789 -2.0501123 28.83017578 -2.07592773 28.22753906 C-2.19222962 25.56815529 -2.31480067 22.90909597 -2.4375 20.25 C-2.49647461 18.86941406 -2.49647461 18.86941406 -2.55664062 17.4609375 C-2.59853516 16.57148438 -2.64042969 15.68203125 -2.68359375 14.765625 C-2.72025146 13.94868164 -2.75690918 13.13173828 -2.79467773 12.29003906 C-2.92049364 10.00280194 -2.92049364 10.00280194 -3.64086914 7.90527344 C-4 6 -4 6 -2.0625 2.75 C-1.381875 1.8425 -0.70125 0.935 0 0 Z " fill="#CEF1EF" transform="translate(251,233)"/>
<path d="M0 0 C0.33 0 0.66 0 1 0 C1 1.98 1 3.96 1 6 C0.01 6.33 -0.98 6.66 -2 7 C-2.33 7.99 -2.66 8.98 -3 10 C-6.52059568 11.17353189 -9.306493 11.20146402 -13 11 C-13.66 10.34 -14.32 9.68 -15 9 C-14.39671875 8.96261719 -13.7934375 8.92523438 -13.171875 8.88671875 C-6.93072453 8.50765052 -6.93072453 8.50765052 -2 5 C-0.73152315 2.41501488 -0.73152315 2.41501488 0 0 Z " fill="#0A684F" transform="translate(215,303)"/>
<path d="M0 0 C3.45826342 -0.05789006 6.91640293 -0.09355821 10.375 -0.125 C11.35984375 -0.14175781 12.3446875 -0.15851563 13.359375 -0.17578125 C14.77089844 -0.18544922 14.77089844 -0.18544922 16.2109375 -0.1953125 C17.51490479 -0.21102295 17.51490479 -0.21102295 18.84521484 -0.22705078 C21 0 21 0 23 2 C14.81850951 3.6362981 7.97718384 3.06815877 0 1 C0 0.67 0 0.34 0 0 Z " fill="#207D65" transform="translate(68,448)"/>
<path d="M0 0 C3.67056937 1.47797262 5.41085783 3.47615477 7.75 6.625 C8.67039063 7.85089844 8.67039063 7.85089844 9.609375 9.1015625 C10.29773438 10.04128906 10.29773438 10.04128906 11 11 C10.34 11.66 9.68 12.32 9 13 C8.60167969 12.45730469 8.20335937 11.91460937 7.79296875 11.35546875 C7.26316406 10.64003906 6.73335937 9.92460938 6.1875 9.1875 C5.66542969 8.47980469 5.14335937 7.77210937 4.60546875 7.04296875 C3.06893533 4.99125475 3.06893533 4.99125475 1.30078125 3.36328125 C0 2 0 2 0 0 Z " fill="#116D5B" transform="translate(131,86)"/>
<path d="M0 0 C-1.48302402 4.44907205 -5.08285501 6.74579392 -9 9 C-9.66 9 -10.32 9 -11 9 C-10.34 7.68 -9.68 6.36 -9 5 C-8.34 5 -7.68 5 -7 5 C-7 4.34 -7 3.68 -7 3 C-2.61538462 0 -2.61538462 0 0 0 Z " fill="#D6F2EE" transform="translate(137,122)"/>
<path d="M0 0 C0.33 0 0.66 0 1 0 C1.05386629 2.12472576 1.09273071 4.24983652 1.125 6.375 C1.14820313 7.55835938 1.17140625 8.74171875 1.1953125 9.9609375 C1 13 1 13 -1 15 C-1.33 14.67 -1.66 14.34 -2 14 C-1.9356887 12.20512995 -1.79860014 10.41261222 -1.625 8.625 C-1.53476563 7.64789063 -1.44453125 6.67078125 -1.3515625 5.6640625 C-1 3 -1 3 0 0 Z " fill="#E3FCFB" transform="translate(247,314)"/>
<path d="M0 0 C0.33 0 0.66 0 1 0 C1.06058594 0.63808594 1.12117188 1.27617188 1.18359375 1.93359375 C1.26738281 2.75988281 1.35117188 3.58617188 1.4375 4.4375 C1.51871094 5.26121094 1.59992188 6.08492188 1.68359375 6.93359375 C1.78930815 8.98662025 1.78930815 8.98662025 3 10 C3.23427778 12.01594582 3.41336124 14.038474 3.5625 16.0625 C3.64628906 17.16722656 3.73007813 18.27195312 3.81640625 19.41015625 C3.87699219 20.26480469 3.93757813 21.11945313 4 22 C0.33224605 18.33224605 0.08179759 12.98870385 -0.125 7.9609375 C-0.125 5.30417401 -0.08933217 2.65515068 0 0 Z " fill="#DBF9F5" transform="translate(95,102)"/>
<path d="M0 0 C0.33 0 0.66 0 1 0 C1.16789217 3.27077164 1.33410238 6.54162664 1.5 9.8125 C1.54769531 10.74126953 1.59539062 11.67003906 1.64453125 12.62695312 C1.68964844 13.51962891 1.73476562 14.41230469 1.78125 15.33203125 C1.82314453 16.15421143 1.86503906 16.9763916 1.90820312 17.82348633 C1.98092498 19.54772929 2 21.27422415 2 23 C-0.03607306 21.13665293 -0.95193248 19.65982207 -1.15380859 16.88867188 C-1.07027135 14.33232968 -0.90021581 11.79882483 -0.6875 9.25 C-0.62626953 8.36183594 -0.56503906 7.47367187 -0.50195312 6.55859375 C-0.34905186 4.37092956 -0.18127554 2.18546558 0 0 Z " fill="#097156" transform="translate(129,301)"/>
<path d="M0 0 C3.21043882 1.38188453 5.04936365 2.92421903 7.25 5.625 C8.03117187 6.57246094 8.03117187 6.57246094 8.828125 7.5390625 C9.40820312 8.26222656 9.40820312 8.26222656 10 9 C7 9 7 9 5.17578125 7.28515625 C4.56089844 6.55167969 3.94601563 5.81820313 3.3125 5.0625 C2.68988281 4.33160156 2.06726563 3.60070312 1.42578125 2.84765625 C0 1 0 1 0 0 Z " fill="#68C295" transform="translate(89,357)"/>
<path d="M0 0 C1.27617187 0.00483398 1.27617187 0.00483398 2.578125 0.00976562 C3.46757812 0.01814453 4.35703125 0.02652344 5.2734375 0.03515625 C6.170625 0.03966797 7.0678125 0.04417969 7.9921875 0.04882812 C10.21100398 0.06063034 12.42968768 0.0770947 14.6484375 0.09765625 C14.6484375 0.42765625 14.6484375 0.75765625 14.6484375 1.09765625 C12.37770098 1.26563676 10.10684457 1.43199738 7.8359375 1.59765625 C5.93908203 1.736875 5.93908203 1.736875 4.00390625 1.87890625 C0.25314707 2.12342606 -2.74443136 2.09272691 -6.3515625 1.09765625 C-4.00303722 -0.07660639 -2.61382185 -0.01742548 0 0 Z " fill="#00674B" transform="translate(203.3515625,349.90234375)"/>
<path d="M0 0 C1.27230469 0.21462891 1.27230469 0.21462891 2.5703125 0.43359375 C6.00192112 1.00031727 9.43696464 1.5362701 12.875 2.0625 C14.02742188 2.23910156 15.17984375 2.41570312 16.3671875 2.59765625 C17.23601562 2.73042969 18.10484375 2.86320313 19 3 C19 3.33 19 3.66 19 4 C12.93233264 4.21975455 7.72184417 4.14569156 2 2 C1.34 1.34 0.68 0.68 0 0 Z " fill="#C9E8E5" transform="translate(313,242)"/>
<path d="M0 0 C2.375 1.5 2.375 1.5 4 3 C-4.57142857 3.28571429 -4.57142857 3.28571429 -8 1 C-5.19084526 -0.40457737 -3.11189466 -0.24895157 0 0 Z " fill="#C8EBE9" transform="translate(140,346)"/>
<path d="M0 0 C0.99 0.33 1.98 0.66 3 1 C0.69 3.31 -1.62 5.62 -4 8 C-4.99 7.67 -5.98 7.34 -7 7 C-4.69 4.69 -2.38 2.38 0 0 Z " fill="#177C67" transform="translate(233,138)"/>
<path d="M0 0 C1.98 0 3.96 0 6 0 C6.33 0.99 6.66 1.98 7 3 C4.36 3.33 1.72 3.66 -1 4 C-0.67 2.68 -0.34 1.36 0 0 Z " fill="#D1EEED" transform="translate(324,210)"/>
<path d="M0 0 C0.66 0.33 1.32 0.66 2 1 C-0.31 3.64 -2.62 6.28 -5 9 C-5.66 8.01 -6.32 7.02 -7 6 C-4.69 4.02 -2.38 2.04 0 0 Z " fill="#DDF0ED" transform="translate(105,86)"/>
<path d="M0 0 C0.66 0 1.32 0 2 0 C1.47731534 2.76276177 0.89130413 5.3260876 0 8 C-0.66 8 -1.32 8 -2 8 C-2.33 8.66 -2.66 9.32 -3 10 C-2.49287967 6.28111761 -1.88391785 3.26545761 0 0 Z " fill="#1C8470" transform="translate(221,153)"/>
<path d="M0 0 C1.98 0 3.96 0 6 0 C6.33 0.99 6.66 1.98 7 3 C4.69 3 2.38 3 0 3 C0 2.01 0 1.02 0 0 Z " fill="#097453" transform="translate(113,114)"/>
<path d="M0 0 C0.33 0.99 0.66 1.98 1 3 C0.01 3.33 -0.98 3.66 -2 4 C-2 4.66 -2 5.32 -2 6 C-3.98 6.33 -5.96 6.66 -8 7 C-7.236875 6.401875 -6.47375 5.80375 -5.6875 5.1875 C-3.6516425 3.53040668 -1.8021721 1.89702326 0 0 Z " fill="#C5EAE3" transform="translate(228,323)"/>
<path d="M0 0 C0.66 0.33 1.32 0.66 2 1 C0.02 3.31 -1.96 5.62 -4 8 C-4.66 6.68 -5.32 5.36 -6 4 C-4.02 2.68 -2.04 1.36 0 0 Z " fill="#0D755A" transform="translate(134,126)"/>
<path d="M0 0 C2.76276177 0.52268466 5.3260876 1.10869587 8 2 C8.33 2.99 8.66 3.98 9 5 C5.22454612 3.90931332 2.52956528 3.0916909 0 0 Z " fill="#CDEFEE" transform="translate(123,342)"/>
<path d="M0 0 C1.485 0.99 1.485 0.99 3 2 C2.67 4.31 2.34 6.62 2 9 C1.34 8.67 0.68 8.34 0 8 C0 5.36 0 2.72 0 0 Z " fill="#8DCF9A" transform="translate(75,321)"/>
<path d="M0 0 C0.66 0 1.32 0 2 0 C1.45773019 3.79588866 -0.20127563 5.47211993 -3 8 C-3.66 7.67 -4.32 7.34 -5 7 C-4.360625 6.21625 -3.72125 5.4325 -3.0625 4.625 C-1.01857687 2.20460719 -1.01857687 2.20460719 0 0 Z " fill="#0F7563" transform="translate(377,126)"/>
<path d="M0 0 C2.97 0.495 2.97 0.495 6 1 C6 1.66 6 2.32 6 3 C3.69 3 1.38 3 -1 3 C-0.67 2.01 -0.34 1.02 0 0 Z " fill="#2F9074" transform="translate(354,122)"/>
</svg>
